<svg xmlns="http://www.w3.org/2000/svg" width="378" height="598" viewBox="0 0 100.013 158.221"><path d="M58.293-.408l-.009 6.376a1.51 1.51 0 01.834-.255c1.243 0 1.79 2.566.813 3.809-.43.546-1.099.73-1.652.527l-.013 10.455c2.077-2.153 3.832-4.069 4.387-4.822.539-.73.54-.741.084-1.06-.598-.42-.603-1.553-.008-2.147 1.1-1.1 1.83-1.285 4.82-1.217 1.555.035 4.33-.045 6.167-.179 1.837-.133 4.596-.301 6.132-.373a613.92 613.92 0 006.518-.356c2.048-.124 4.19-.218 4.758-.208 1.544.026 2.96-.463 3.262-1.126.26-.569.869-.624 1.914-.175.315.135.406.017.466-.607.103-1.08.851-1.164 1.672-.188 1.102 1.31 1.109 2.554.013 2.554-.492 0-.58.082-.45.408.091.224.22.8.29 1.28.122.867.118.873-.695.873-.66 0-.982-.181-1.66-.931-1.082-1.2-1.355-1.186-1.238.058.135 1.434-.637 3.535-2.972 8.089-.506.985-2.318 5.243-4.36 10.24-.497 1.217-1.475 3.325-2.174 4.686-.699 1.36-1.27 2.636-1.27 2.835 0 1.063-2.241 1.475-4.127.758-2.848-1.082-14.965-1.147-21.36-.115l-.192.029c-.017 13.76-.028 25.387-.033 34.329 2.586.264 3.972.872 5.589 2.435.774.748 1.835 1.675 2.36 2.06.84.619 1.703 1.616 1.703 1.971 0 .289-.55.085-1.29-.48-.727-.555-.914-.592-2.2-.443-1.389.161-1.42.152-2.367-.705-.529-.477-1.624-1.168-2.435-1.536a8.274 8.274 0 00-1.362-.49l-.003 5.08c3.866.403 7.585.312 13.148-.301 2.175-.24 3.205-.14 4.068.393.81.5 1.863.619 2.1.236.079-.128.353-.233.61-.233.689 0 .323.391-.852.911-.608.269-1.038.615-1.038.833 0 .619-.686 1.748-1.062 1.748-.193 0-.63-.184-.973-.408-.672-.44-.967-.445-13.839-.193-.793.015-1.508.033-2.163.055 0 17.694.028 34.569.089 74.278h42.047V-.408zm-.089 84.48v-3.04a49.42 49.42 0 01-1.067-.123c-2.308-.29-3.625-.108-5.633.784-.74.328-1.454.597-1.587.597s-.588.366-1.01.814c-.9.953-1.465 1.112-1.041.291.44-.852.953-1.338 1.411-1.338.236 0 .43-.153.43-.341 0-.188.298-.685.664-1.105.366-.42.813-1.05.993-1.4.18-.349.932-1.145 1.67-1.769 1.766-1.493 3.324-1.964 5.174-1.49l.002-2.813c-.146-.015-.28-.034-.435-.047-1.748-.145-2.038-.227-1.934-.549.066-.208.49-1.272.943-2.365 1.413-3.416 1.752-6.443 1.011-9.033-.27-.941-.944-1.66-1.18-1.259-.058.097-.172.749-.255 1.449-.272 2.29-.785 4.343-1.536 6.147-.406.975-.82 1.823-.92 1.884-.099.062-.473.69-.83 1.397-.358.706-1.418 2.22-2.358 3.366-.94 1.145-1.708 2.156-1.708 2.248 0 .091-.243.49-.54.886-.602.802-.947 1.53-.895 1.889.019.13-.199.34-.483.465-.285.126-.647.49-.805.81-.158.32-.526.871-.818 1.225-.293.354-.534.722-.537.816-.011.427-.933 1.662-1.316 1.762-.275.072-.425.326-.425.72 0 .43-.165.673-.558.823-.648.246-1.304 1.094-1.304 1.687 0 .553-1.992 3.146-2.555 3.324-.246.078-.656.477-.91.886-.256.41-1.374 1.635-2.485 2.723-4.53 4.434-5.296 5.54-5.58 8.062-.144 1.27-.107 1.482.336 1.925.375.375.6.443.914.275.512-.274.979-1.691.713-2.166-.41-.732 2.248-3.891 6.328-7.522l2.146-1.912c.467-.416.947-.756 1.067-.756.121 0 .267-.131.324-.291.057-.16.172-.228.256-.152.171.158-.236 2.108-1.09 5.214-.502 1.83-.79 3.616-1.26 7.797-.065.577-.208 1.219-.318 1.427-.11.208-1.258.914-2.551 1.57-3.457 1.753-5.576 3.18-5.576 3.754 0 .6 1.752 2.523 2.459 2.7.334.084.795-.046 1.247-.352 1.35-.916 1.998-1.31 3.219-1.96l1.222-.65.217.571c.12.314.284.976.365 1.47.08.493.357 1.864.615 3.046.257 1.181.433 2.316.391 2.522-.093.457-3.61 1.733-4.964 1.8-.843.042-.925.1-.871.628.122 1.186 1.699 1.898 5.612 2.534.815.133 1.706.389 1.981.569.28.183.849 1.187 1.292 2.278a78.822 78.822 0 001.681 3.796c.49 1.015.85 1.887.8 1.937-.05.05-.644-.074-1.32-.275-1.404-.417-3.521-.48-4.186-.124-.623.334-.563 1.03.114 1.339.31.141 1.004.917 1.541 1.724.537.807 1.645 2.106 2.46 2.886 1.313 1.256 1.995 1.674 3.98 2.439 1.252.482 1.77 6.172.753 8.273-.578 1.193-.563 1.192-2.827.314-2.132-.826-3.521-.112-1.641.845.48.244 1.217.694 1.638 1.001l.765.558-.474.505c-.26.277-.475.788-.475 1.135 0 .446-.513 1.24-1.752 2.707-2.323 2.754-3.436 3.688-4.499 3.777-.832.07-.846.088-1.026 1.344-.1.7-.13 1.407-.067 1.571.063.164.206.298.317.298.296 0 4.14-3.87 6.001-6.042.882-1.03 1.746-1.872 1.92-1.872.173 0 .639.231 1.034.513.954.68 3.068.849 4.077.327.728-.377.93-.874 1.047-2.58.043-.627-.02-.692-.669-.698-.839-.006-2.326-1.131-2.559-1.936-.085-.294.012-1.131.216-1.862.615-2.198.707-4.352.29-6.75-.207-1.19-.317-2.4-.244-2.69.073-.29.492-.827.933-1.194.668-.557.802-.824.807-1.616.004-.522.28-1.891.613-3.044.333-1.152.654-2.645.713-3.317.096-1.09.059-1.221-.344-1.221-.534 0-.914.414-1.8 1.964-.361.632-.892 1.368-1.18 1.634-.287.267-.56.745-.604 1.062-.055.39-.252.6-.606.651-.534.076-.846-.443-1.796-2.984-.167-.448-.688-1.731-1.157-2.852-.47-1.121-.788-2.144-.708-2.274.09-.147.399-.085.827.168.623.369.714.371 1.052.033.339-.339.335-.438-.041-1.156-.227-.432-.532-1.309-.679-1.948-.327-1.428.047-3.55.807-4.579.639-.864.55-1.679-.193-1.784-.71-.1-.996.202-1.442 1.526-.486 1.442-.87 1.659-2.13 1.202-.832-.302-1.049-.515-1.302-1.274-.797-2.386-1.29-4.788-1.307-6.356l-.018-1.72 1.204-.412c.662-.227 1.256-.36 1.32-.295.065.065.335.048.6-.036.39-.123.482-.344.478-1.127-.006-1.037-.322-2.66-.567-2.903-.08-.081-.37-.008-.644.163-.765.478-1.648.672-2.17.479-.46-.17-.466-.245-.194-2.586.685-5.9 2.352-12.426 3.531-13.822.66-.78 3.685-3.137 4.028-3.137.175 0 .896-.353 1.603-.786 1.83-1.12 3.3-1.47 7.804-1.621zm.039-45.262l.004-2.617c-.96.147-2.676.481-4.289.843-4.085.919-4.186.93-3.786.448.16-.192.378-.349.486-.349.226 0 3.18-1.808 5.941-3.637a24.196 24.196 0 011.652-1.012l.005-3.915c-.524-.13-.885.053-1.01.55-.083.33-.022.88.135 1.223.266.58.227.67-.565 1.321-.9.74-2.57 1.82-6.179 3.998-1.216.734-2.263 1.392-2.327 1.462-.315.345-2.078 1.426-2.844 1.745-.476.198-1.092.36-1.37.36-.587 0-.381-.24 5.13-5.964a407.291 407.291 0 004.105-4.306c1.05-1.156 3.502-3.4 4.73-4.33.061-.045.133-.105.2-.159l.005-3.967a200.839 200.839 0 01-3.989 4.023c-4.38 4.285-4.132 4.038-4.928 4.94-2.161 2.45-11.145 10.727-12.609 11.617-.399.243-.813.595-.92.781-.108.187-1.481 1.08-3.053 1.983-1.572.905-3.768 2.252-4.88 2.994-2.246 1.497-5.18 4.223-5.18 4.81 0 .586.244.461 1.685-.862.736-.676 2.15-1.708 3.143-2.294 1.78-1.051 5.184-2.59 5.354-2.42.048.048-.155.343-.45.655-.607.64-1.737 2.077-2.33 2.964-.218.325-1.026 1.48-1.797 2.569-1.513 2.136-5.717 8.779-6.084 9.614-.124.281-.743 1.35-1.376 2.373-.633 1.025-1.156 1.957-1.161 2.073-.035.7 3.32-4.131 3.863-5.564.097-.256.522-.822.945-1.258.422-.435.768-.933.768-1.106 0-.172.078-.313.174-.314.096-.001.434-.394.751-.873.317-.48 1.01-1.395 1.54-2.035.53-.64 1.11-1.442 1.286-1.781.933-1.79 7.795-8.698 9.916-9.983 1.249-.758 1.806-.774 1.278-.037-.508.707-.826 1.442-.685 1.583.076.076.748-.476 1.493-1.226.745-.75 1.721-1.541 2.17-1.757 1.026-.496 8.385-2.23 10.706-2.522.923-.116 2.835-.399 4.347-.641zm.018-14.339l-.005 4.1c.256.064.551.201.877.417.384.255.82.464.97.464.431.003 4.036-2.759 4.022-3.081-.007-.16-.505-.606-1.106-.99-.803-.513-1.112-.869-1.166-1.34-.049-.419.052-.69.291-.781.41-.158 2.326.663 3.04 1.302.878.784 1.376.765 2.824-.108.752-.453 1.628-1.034 1.948-1.29l.582-.468-.698-.577c-.384-.317-.781-.577-.882-.578-.102 0-.644-.341-1.204-.757-1.219-.904-1.612-1.593-1.215-2.133.25-.342.348-.333 1.09.092.448.256 1.338.741 1.978 1.079.64.338 1.442.81 1.782 1.05.753.53 1.79.568 1.98.071.223-.58-.203-1.228-2.485-3.78-2.121-2.37-2.156-2.396-3.103-2.327-.904.067-1.018.162-2.045 1.72-1.112 1.685-5.546 6.367-7.475 7.915zm-.01 8.015l-.004 3.707c.2-.031.415-.065.537-.077.704-.068 2.38-.24 3.724-.384 3.148-.336 10.23-.347 14.014-.022 3.162.272 3.793.2 3.554-.409-.081-.207-.396-1.32-.7-2.472-1.083-4.108-1.808-5.941-3.475-8.787-.575-.98-1.072-1.571-1.324-1.571-.74 0-.67.408.27 1.546 1.198 1.449 1.808 2.96 1.396 3.456-.421.507-1.1.435-2.251-.24-1.075-.63-1.265-1.145-.603-1.639.373-.278.378-.358.05-.955-.196-.359-.543-.688-.77-.731-.788-.152-4.807 2.077-4.807 2.666 0 .19.575 1.057 1.279 1.928 1.393 1.724 1.824 2.878 1.17 3.129-.568.217-1.215-.213-1.863-1.239-1.01-1.6-1.992-2.567-2.605-2.567-.316 0-1.327.453-2.246 1.006-.919.554-1.854 1.074-2.078 1.157-.63.231-.487.955.42 2.144 1.144 1.498 1.337 2.075.845 2.518-.56.504-1.533.039-2.764-1.324-.537-.593-1.101-1.079-1.255-1.079-.058 0-.26.1-.514.239zm.028-22.437l.005-4.081c-1.068.698-1.487 2.663-.521 3.73.148.165.325.28.516.351zm5.361-2.452c.549.016.963.394.963 1.173 0 1.954-1.814 3.474-2.878 2.411-.568-.568-.661-1.21-.281-1.945.56-1.085 1.49-1.66 2.196-1.639zm20.938 6.048a95.752 95.752 0 00-6.01.228c-1.6.113-3.904.262-5.12.331-1.216.07-2.604.187-3.084.26l-.872.134 1.803 2.124a190.1 190.1 0 012.153 2.566c.934 1.182 1.205 1.214 2.327.27.74-.623 4.766-2.718 7.827-4.074 1.76-.78 3.364-1.518 3.564-1.64.227-.139-.895-.204-2.588-.199zm6.712.447c-.923 0-4.722 1.603-10.045 4.238-3.12 1.545-5.702 3.21-5.702 3.678 0 .122.376.811.837 1.532 1.547 2.418 2.855 5.52 3.794 8.999.51 1.888.992 3.538 1.071 3.666.235.379.702.266 1.213-.292.264-.288.556-.786.65-1.106.095-.32.25-.686.344-.814.257-.348 2.667-5.811 3.388-7.681 1.204-3.12 3.206-7.911 3.982-9.53.821-1.714.991-2.69.468-2.69zM84.671 39.56c.12-.002.243.044.402.13.97.519 1.287 2.266.557 3.073-.47.519-.35.53-2.116-.21-1.631-.686-1.92-1.296-.814-1.714.352-.133.917-.506 1.256-.83.327-.31.516-.447.715-.45zm.188 4.225a.194.194 0 01.088.008c.428.164 1.063 1.61 1.224 2.788.245 1.781-.889 2.747-2.17 1.85-.27-.19-.558-.703-.64-1.14-.082-.44-.304-.926-.493-1.082-.188-.157-.343-.425-.343-.595 0-.394 1.804-1.774 2.334-1.829zm-46.034 1.979c-.204-.048-.524.274-.524.58 0 .184.094.335.208.335.236 0 .557-.71.395-.871a.162.162 0 00-.079-.044zm50.694 6.08l.373.72c.677 1.311.786 2.03.433 2.874-.182.435-.492.852-.689.928-.197.076-.313.211-.257.301.056.09-.292.187-.774.216-.604.035-.977-.077-1.208-.363-1.013-1.26-1.382-2.824-.801-3.404.211-.212.565-.385.785-.385.22 0 .79-.2 1.269-.443zm-31.81 1.12c-.179 0-1.19.55-2.244 1.222-1.055.673-2.206 1.372-2.558 1.553-1.203.619-.532 2.406 1.328 3.541.962.587 1.07.563 2.059-.45.647-.663.796-.95.596-1.15-.2-.2-.113-.448.348-.996.365-.433.615-1.014.615-1.426 0-.383.104-.89.232-1.129.28-.524.074-1.165-.375-1.165zm26.39 1.204c.04.002.072.006.094.014.17.066.497.788.725 1.604.228.816.531 1.873.674 2.348.195.646.19 1.322-.019 2.676-.349 2.263-1.27 6.408-2.136 9.61-.364 1.345-.93 3.806-1.26 5.47-1.176 5.939-1.688 7.64-2.68 8.9-.254.325-.463.68-.463.79 0 .321.8.235 1.294-.14.527-.398 1.266-.464 1.266-.112 0 .134.21.678.466 1.208.256.53.465 1.182.465 1.45 0 .487-.572 1.487-1.034 1.808-.426.296-1.867.193-2.386-.17-.274-.192-.677-.818-.895-1.39-.22-.574-.594-1.105-.834-1.181-.573-.182-.551-.287.277-1.382.738-.976 1.716-3.866 1.97-5.824.084-.64.24-1.53.35-1.978.109-.448.36-2.084.559-3.635.198-1.55.675-4.012 1.059-5.47.384-1.457.95-3.596 1.257-4.753.87-3.278 1.213-5.697.84-5.928-.169-.104-.42-.156-.56-.115-.14.04-1.615.249-3.28.462-3.942.507-7.363 1.001-8.96 1.296-.705.13-2.695.281-4.423.337a219.52 219.52 0 00-5.438.245c-1.8.114-2.274.081-2.197-.15.122-.367 1.465-.868 2.398-.894.384-.011 1.723-.281 2.974-.6 1.252-.319 2.718-.583 3.258-.588.541-.005 1.245-.158 1.565-.341.32-.183 1.067-.336 1.66-.34.592-.005 1.466-.172 1.942-.37.475-.2 1.842-.566 3.037-.816 3.137-.655 4.907-1.094 6.666-1.654.747-.237 1.482-.395 1.769-.387zm-7.392 5.165c.286.02.417.23.176.616-.237.38-.181.549.365 1.12.841.877 1.02 2.689.273 2.765-.256.027-.706-.05-1-.17-.98-.402-1.633-3.102-.92-3.806.38-.375.82-.545 1.106-.525zm-6.991 4.371c.804-.008 2.428 1.001 4.083 2.683 1.687 1.715 1.744 1.809 1.744 2.903 0 .622-.1 1.13-.22 1.13s-.828-.564-1.57-1.253c-3.9-3.616-4.496-4.243-4.553-4.79-.046-.455.15-.67.516-.673zm-8.078 2.023c.32.013.831.253 1.707.685 3.41 1.682 5.359 3.234 7.048 5.615.765 1.077 1.036 2.824.436 2.808-.16-.004-.973-.66-1.806-1.458-1.807-1.73-4.26-3.379-6.125-4.117-1.594-.632-2.135-1.302-1.925-2.388.154-.804.252-1.162.665-1.145zm-42.173 1.235a.44.44 0 00-.238.076c-.139.086-.186.263-.106.393.099.159.228.155.396-.012.224-.224.15-.45-.052-.457zm-.7 1.364c-.282 0-1.634 2.06-1.64 2.502-.01.622.385.232 1.12-1.106.423-.768.657-1.396.52-1.396zm-12.42 6.563c-1.054 0-1.993.083-2.607.268-.74.221-.946.403-1.002.883-.102.866.08.916 6.118 1.712 1.533.202 3.094.52 3.469.707.374.187.917.34 1.206.34.68 0 3.01.877 4.074 1.534.926.572 1.613 1.484 1.613 2.143 0 .239.07.504.155.59.086.085.327.155.536.155 1.125 0 1.267-1.617.255-2.89-.376-.473-.716-.933-.756-1.022-.29-.64-4.749-3.07-5.633-3.07-.22 0-.687-.15-1.04-.332-1.194-.617-4.07-1.019-6.388-1.018zM.877 85.665c-2.078 0-2.672.073-2.842.347-.118.191-.138.423-.045.516.093.093 1.79.755 3.772 1.47 1.982.716 3.767 1.491 3.967 1.724.2.233.652.423 1.007.423.981 0 1.16.332.733 1.354-.204.49-.319 1.03-.253 1.2.08.211.323.26.763.152 1.797-.439 4.719-1.71 4.719-2.052 0-.341-2.291-2.415-2.866-2.593-.28-.087-.77-.336-1.09-.552-.321-.217-1.63-.753-2.91-1.192-2.112-.723-2.572-.797-4.955-.797zm7.774.429c-.084-.014-.143.037-.143.139 0 .136.105.246.233.246s.233-.045.233-.102c0-.056-.105-.167-.233-.246a.257.257 0 00-.09-.037zm-3.169 4.808a.233.233 0 10.001.465.233.233 0 000-.465zm-2.998 4.422c-.266 0-.96 1.057-.951 1.447.004.164.266.005.582-.354.59-.67.732-1.093.369-1.093zm-1.347 1.972c-.041.006-.11.054-.211.138-.182.151-.332.367-.332.48 0 .405.414.192.537-.276.064-.245.074-.351.006-.342zm-8.487 1.246c-1.38.022-2.464.281-2.907.77-.39.431-.387.472.06.92.258.257 1.142.623 1.964.812 1.834.421 4.45 1.255 4.723 1.505.113.103.091.322-.05.495-4.222 5.206-9.895 10.938-11.05 11.166-.277.055-.576.53-.86 1.364-.424 1.246-.402 2.142.065 2.735.498.632 1.27.319 2.001-.814.393-.608.96-1.368 1.261-1.689 1.042-1.11 5.643-6.921 6.562-8.286a74.744 74.744 0 011.953-2.736c.948-1.256 1.088-1.354 1.771-1.243 1.252.203 2.194-.117 2.701-.918l.463-.733-.88-1.04c-.803-.95-1.072-1.093-3.09-1.66-1.63-.456-3.307-.67-4.687-.648zm7.459.069c-.213.022-.445.3-.445.618 0 .355.03.354.393-.009.216-.216.328-.458.248-.538a.235.235 0 00-.196-.071zm44.052 23.045c.325-.023.681.258.614.607-.043.223-.247.438-.454.477-.441.085-.783-.625-.457-.951a.459.459 0 01.297-.133zm-.06 11.955a.548.548 0 01.136.034c.192.074.349.176.349.226 0 .05-.157.091-.35.091-.191 0-.349-.101-.349-.225 0-.093.089-.14.214-.126z" fill="#298e3e"/><text style="line-height:1.25;-inkscape-font-specification:Constantia" x="2.163" y="267.31" transform="matrix(.95034 0 0 1.05226 0 -138.78)" font-weight="400" font-size="25.938" font-family="Constantia" letter-spacing="0" word-spacing="0" stroke-width=".648"><tspan x="2.163" y="267.31" style="-inkscape-font-specification:Constantia">Scouting</tspan></text></svg>